<svg width="20" height="20" viewBox="0 0 20 20" fill="none" xmlns="http://www.w3.org/2000/svg">
<path d="M10.6557 10.8957C11.1503 10.401 11.1503 9.599 10.6557 9.10433L2.59465 1.04331C2.09999 0.54865 1.29798 0.54865 0.803314 1.04331C0.30865 1.53798 0.30865 2.33999 0.803314 2.83465L7.96866 10L0.803314 17.1653C0.30865 17.66 0.30865 18.462 0.803314 18.9567C1.29798 19.4513 2.09999 19.4513 2.59465 18.9567L10.6557 10.8957ZM9 11.2667H9.76V8.73333H9V11.2667Z" fill="#0D0842"/>
<path d="M9.10434 9.10433C8.60968 9.599 8.60968 10.401 9.10434 10.8957L17.1654 18.9567C17.66 19.4513 18.462 19.4513 18.9567 18.9567C19.4514 18.462 19.4514 17.66 18.9567 17.1653L11.7913 10L18.9567 2.83465C19.4514 2.33999 19.4514 1.53798 18.9567 1.04331C18.462 0.54865 17.66 0.54865 17.1654 1.04331L9.10434 9.10433ZM10.76 8.73333H10V11.2667H10.76V8.73333Z" fill="#0D0842"/>
</svg>
