<svg width="58" height="59" viewBox="0 0 58 59" fill="none" xmlns="http://www.w3.org/2000/svg">
<path fill-rule="evenodd" clip-rule="evenodd" d="M25.5287 10.3967C21.4122 10.3967 17.4642 12.032 14.5534 14.9428C11.6426 17.8536 10.0073 21.8016 10.0073 25.9181C10.0073 30.0347 11.6426 33.9826 14.5534 36.8935C17.4642 39.8043 21.4122 41.4396 25.5287 41.4396C29.6453 41.4396 33.5932 39.8043 36.5041 36.8935C39.4149 33.9826 41.0502 30.0347 41.0502 25.9181C41.0502 21.8016 39.4149 17.8536 36.5041 14.9428C33.5932 12.032 29.6453 10.3967 25.5287 10.3967ZM5.23145 25.9181C5.23172 22.6815 6.006 19.4919 7.48968 16.6154C8.97337 13.7389 11.1234 11.2589 13.7605 9.38236C16.3976 7.5058 19.4452 6.28708 22.649 5.82788C25.8529 5.36868 29.1201 5.68232 32.1781 6.74262C35.2361 7.80293 37.9962 9.57915 40.2281 11.9231C42.46 14.2671 44.099 17.1108 45.0084 20.217C45.9178 23.3232 46.0711 26.6019 45.4557 29.7794C44.8402 32.957 43.4738 35.9413 41.4705 38.4833L50.1911 47.204C50.6261 47.6544 50.8668 48.2576 50.8614 48.8837C50.8559 49.5098 50.6048 50.1087 50.1621 50.5514C49.7193 50.9942 49.1204 51.2453 48.4943 51.2508C47.8682 51.2562 47.265 51.0155 46.8146 50.5805L38.094 41.8599C35.101 44.2191 31.5043 45.6881 27.7154 46.0987C23.9266 46.5092 20.0987 45.8448 16.6698 44.1814C13.2409 42.5181 10.3496 39.923 8.32674 36.6931C6.30387 33.4633 5.23119 29.7292 5.23145 25.9181ZM23.1408 17.5604C23.1408 16.9271 23.3924 16.3197 23.8402 15.8719C24.288 15.4241 24.8954 15.1725 25.5287 15.1725C28.3787 15.1725 31.1118 16.3046 33.127 18.3198C35.1422 20.335 36.2744 23.0682 36.2744 25.9181C36.2744 26.5514 36.0228 27.1588 35.575 27.6066C35.1271 28.0545 34.5198 28.306 33.8864 28.306C33.2531 28.306 32.6458 28.0545 32.1979 27.6066C31.7501 27.1588 31.4985 26.5514 31.4985 25.9181C31.4985 24.3348 30.8696 22.8164 29.75 21.6968C28.6305 20.5773 27.112 19.9483 25.5287 19.9483C24.8954 19.9483 24.288 19.6968 23.8402 19.2489C23.3924 18.8011 23.1408 18.1937 23.1408 17.5604Z" fill="white"/>
</svg>
